<svg width="83" height="27" viewBox="0 0 83 27" fill="none" xmlns="http://www.w3.org/2000/svg">
<path d="M1.26 16.08C0.953333 15.9733 0.686667 15.8133 0.46 15.6C0.246667 15.3733 0.106667 15.1067 0.04 14.8C0.28 14.5733 0.56 14.2867 0.88 13.94C1.2 13.5933 1.51333 13.18 1.82 12.7C2.12667 12.2067 2.38 11.6533 2.58 11.04C2.79333 10.4267 2.9 9.74 2.9 8.98V6.56C3.02 6.52 3.16 6.48667 3.32 6.46C3.48 6.43333 3.64667 6.42 3.82 6.42C4.12667 6.42 4.42667 6.46667 4.72 6.56V12.5C4.72 13.2333 4.81333 13.76 5 14.08C5.2 14.4 5.51333 14.56 5.94 14.56C6.12667 14.56 6.26667 14.64 6.36 14.8C6.46667 14.96 6.52 15.1733 6.52 15.44C6.52 15.6533 6.46 15.8467 6.34 16.02C6.23333 16.1933 6.05333 16.28 5.8 16.28C4.30667 16.28 3.38667 15.5667 3.04 14.14C2.48 14.9933 1.88667 15.64 1.26 16.08ZM3.84 3.68C3.46667 3.68 3.14667 3.54667 2.88 3.28C2.61333 3.01333 2.48 2.69333 2.48 2.32C2.48 1.92 2.60667 1.59333 2.86 1.34C3.12667 1.08667 3.45333 0.959999 3.84 0.959999C4.24 0.959999 4.56667 1.08667 4.82 1.34C5.07333 1.59333 5.2 1.92 5.2 2.32C5.2 2.70667 5.06667 3.03333 4.8 3.3C4.54667 3.55333 4.22667 3.68 3.84 3.68ZM5.79703 16.28C5.6237 16.28 5.4837 16.2 5.37703 16.04C5.27036 15.88 5.21703 15.6733 5.21703 15.42C5.21703 14.8467 5.45703 14.56 5.93703 14.56C6.3637 14.56 6.7437 14.3467 7.07703 13.92C7.4237 13.48 7.7237 12.7533 7.97703 11.74L8.57703 9.4C9.13703 7.32 10.2037 6.28 11.777 6.28C12.377 6.28 12.8837 6.46 13.297 6.82C13.7104 7.16667 13.997 7.64 14.157 8.24C14.5304 7.61333 15.0104 7.13333 15.597 6.8C16.1837 6.45333 16.837 6.28 17.557 6.28C18.597 6.28 19.397 6.62 19.957 7.3C20.5304 7.98 20.817 8.93333 20.817 10.16V12.5C20.817 13.2333 20.9104 13.76 21.097 14.08C21.297 14.4 21.6104 14.56 22.037 14.56C22.2237 14.56 22.3637 14.64 22.457 14.8C22.5637 14.96 22.617 15.1733 22.617 15.44C22.617 15.6533 22.557 15.8467 22.437 16.02C22.3304 16.1933 22.1504 16.28 21.897 16.28C19.9637 16.28 18.997 15.0933 18.997 12.72V10.16C18.997 8.72 18.4304 8 17.297 8C16.7104 8 16.1904 8.23333 15.737 8.7C15.297 9.16667 14.9504 9.81333 14.697 10.64C14.457 11.4667 14.337 12.4267 14.337 13.52V16C14.2037 16.04 14.057 16.0733 13.897 16.1C13.737 16.1267 13.5837 16.14 13.437 16.14C13.117 16.14 12.817 16.0933 12.537 16V9.62C12.537 9.1 12.4704 8.7 12.337 8.42C12.2037 8.14 11.9637 8 11.617 8C11.337 8 11.097 8.12667 10.897 8.38C10.697 8.63333 10.5237 9.04 10.377 9.6L9.63703 12.48C9.29036 13.8 8.81036 14.7667 8.19703 15.38C7.5837 15.98 6.7837 16.28 5.79703 16.28ZM22.0308 14.56C22.3108 14.56 22.6108 14.4733 22.9308 14.3C23.2508 14.1267 23.5508 13.86 23.8308 13.5C24.1641 13.0467 24.4041 12.5267 24.5508 11.94C24.7108 11.3533 24.8108 10.76 24.8508 10.16V6.56C24.9708 6.52 25.1108 6.48667 25.2708 6.46C25.4308 6.43333 25.5974 6.42 25.7708 6.42C26.0774 6.42 26.3774 6.46667 26.6708 6.56V12.32C26.6708 13.0267 26.7774 13.58 26.9908 13.98C27.2174 14.3667 27.5908 14.56 28.1108 14.56C28.2574 14.56 28.4174 14.5267 28.5908 14.46C28.7641 14.3933 28.9441 14.2933 29.1308 14.16C29.3574 14.2667 29.5441 14.4533 29.6908 14.72C29.8374 14.9733 29.9041 15.2267 29.8908 15.48C29.6774 15.72 29.4041 15.9133 29.0708 16.06C28.7374 16.2067 28.3774 16.28 27.9908 16.28H27.9708C26.5841 16.28 25.6841 15.6267 25.2708 14.32C25.0841 14.6267 24.8841 14.8867 24.6708 15.1C24.3108 15.46 23.8908 15.7467 23.4108 15.96C22.9441 16.1733 22.4374 16.28 21.8908 16.28C21.7041 16.28 21.5641 16.1867 21.4708 16C21.3641 15.8267 21.3108 15.6333 21.3108 15.42C21.3108 15.1933 21.3708 14.9933 21.4908 14.82C21.5974 14.6467 21.7774 14.56 22.0308 14.56ZM25.7908 3.68C25.4174 3.68 25.0974 3.54667 24.8308 3.28C24.5641 3.01333 24.4308 2.69333 24.4308 2.32C24.4308 1.92 24.5574 1.59333 24.8108 1.34C25.0774 1.08667 25.4041 0.959999 25.7908 0.959999C26.1908 0.959999 26.5174 1.08667 26.7708 1.34C27.0241 1.59333 27.1508 1.92 27.1508 2.32C27.1508 2.70667 27.0174 3.03333 26.7508 3.3C26.4974 3.55333 26.1774 3.68 25.7908 3.68Z" fill="#0DB760"/>
<path d="M32.6075 16.14C32.2742 16.14 31.9675 16.0933 31.6875 16V1.56C32.0075 1.46667 32.3142 1.42 32.6075 1.42C32.9542 1.42 33.2675 1.46667 33.5475 1.56V7.76H40.3275V1.56C40.6075 1.46667 40.9208 1.42 41.2675 1.42C41.5608 1.42 41.8675 1.46667 42.1875 1.56V16C41.9075 16.0933 41.6008 16.14 41.2675 16.14C40.9608 16.14 40.6475 16.0933 40.3275 16V9.5H33.5475V16C33.2275 16.0933 32.9142 16.14 32.6075 16.14ZM43.9797 14.6C44.313 14.4933 44.7264 14.34 45.2197 14.14C45.713 13.9267 46.1797 13.7067 46.6197 13.48C46.1797 12.6267 45.9597 11.64 45.9597 10.52C45.9597 9.69333 46.113 8.96667 46.4197 8.34C46.7264 7.7 47.153 7.2 47.6997 6.84C48.2464 6.46667 48.8664 6.28 49.5597 6.28C50.1464 6.28 50.6664 6.42 51.1197 6.7C51.573 6.96667 51.9264 7.34 52.1797 7.82C52.433 8.3 52.5597 8.85333 52.5597 9.48C52.5064 11.08 51.373 12.5933 49.1597 14.02C49.5997 14.3933 50.213 14.58 50.9997 14.58C51.1864 14.58 51.333 14.66 51.4397 14.82C51.5464 14.98 51.5997 15.1933 51.5997 15.46C51.5997 15.7133 51.5397 15.9133 51.4197 16.06C51.2997 16.2067 51.1264 16.28 50.8997 16.28C50.2064 16.28 49.5597 16.16 48.9597 15.92C48.373 15.6667 47.8997 15.32 47.5397 14.88C47.0464 15.1333 46.5197 15.38 45.9597 15.62C45.413 15.8467 44.9464 16.02 44.5597 16.14C44.3464 15.9533 44.193 15.7333 44.0997 15.48C43.993 15.2267 43.953 14.9333 43.9797 14.6ZM47.6997 10.36C47.6997 11.3067 47.853 12.0933 48.1597 12.72C49.0797 12.1067 49.7464 11.56 50.1597 11.08C50.573 10.5867 50.793 10.0533 50.8197 9.48C50.8197 9 50.6997 8.62667 50.4597 8.36C50.233 8.08 49.913 7.94 49.4997 7.94C48.9797 7.94 48.5464 8.17333 48.1997 8.64C47.8664 9.10667 47.6997 9.68 47.6997 10.36ZM50.9473 16.28C50.7607 16.28 50.6073 16.2 50.4873 16.04C50.3673 15.88 50.3073 15.68 50.3073 15.44C50.3073 14.8667 50.5473 14.58 51.0273 14.58C52.6407 14.58 53.9007 13.9867 54.8073 12.8C55.1807 12.3067 55.4673 11.74 55.6673 11.1C55.8673 10.46 55.9673 9.8 55.9673 9.12C55.9673 8.89333 55.954 8.66667 55.9273 8.44C55.914 8.21333 55.8873 8.03333 55.8473 7.9C55.7007 7.74 55.554 7.52667 55.4073 7.26C55.2607 6.99333 55.1407 6.72667 55.0473 6.46C54.9673 6.18 54.9273 5.94 54.9273 5.74C55.1007 5.48667 55.3807 5.28667 55.7673 5.14C56.154 4.99333 56.5207 4.95333 56.8673 5.02C57.1207 5.48667 57.3273 6.06 57.4873 6.74C57.8207 6.71333 58.2273 6.64 58.7073 6.52C59.134 6.42667 59.474 6.36667 59.7273 6.34C59.994 6.3 60.2207 6.28 60.4073 6.28C61.1273 6.28 61.694 6.55333 62.1073 7.1C62.5207 7.63333 62.7273 8.36 62.7273 9.28V12.5C62.7273 13.2333 62.8207 13.76 63.0073 14.08C63.2073 14.4 63.5207 14.56 63.9473 14.56C64.134 14.56 64.274 14.64 64.3673 14.8C64.474 14.96 64.5273 15.1733 64.5273 15.44C64.5273 15.6533 64.4673 15.8467 64.3473 16.02C64.2407 16.1933 64.0607 16.28 63.8073 16.28C61.874 16.28 60.9073 15.0933 60.9073 12.72V9.62C60.9073 9.02 60.8407 8.6 60.7073 8.36C60.574 8.12 60.334 8 59.9873 8C59.8673 8 59.734 8.01333 59.5873 8.04C59.4407 8.06667 59.1807 8.12 58.8073 8.2C58.3673 8.29333 58.0073 8.36 57.7273 8.4C57.7407 8.6 57.7473 8.8 57.7473 9C57.7473 9.96 57.6007 10.8867 57.3073 11.78C57.0273 12.66 56.6207 13.42 56.0873 14.06C54.874 15.54 53.1607 16.28 50.9473 16.28ZM63.9448 14.56C64.2248 14.56 64.5248 14.4733 64.8448 14.3C65.1648 14.1267 65.4648 13.86 65.7448 13.5C66.1315 12.9667 66.3982 12.34 66.5448 11.62C66.7048 10.9 66.7848 10.2 66.7848 9.52V6.56C66.9048 6.52 67.0448 6.48667 67.2048 6.46C67.3648 6.43333 67.5315 6.42 67.7048 6.42C68.0115 6.42 68.3115 6.46667 68.6048 6.56V11.18C68.6048 13.3933 69.4115 14.5 71.0248 14.5C71.9715 14.5 72.6648 14.12 73.1048 13.36C73.5582 12.5867 73.7848 11.5333 73.7848 10.2V6.56C74.0648 6.46667 74.3648 6.42 74.6848 6.42C75.0182 6.42 75.3248 6.46667 75.6048 6.56V14.9C75.8848 14.7 76.1715 14.5067 76.4648 14.32C76.7715 14.12 77.0315 13.96 77.2448 13.84C77.5115 14 77.7182 14.2067 77.8648 14.46C78.0115 14.7133 78.1048 15.0067 78.1448 15.34C77.9448 15.4733 77.6848 15.6467 77.3648 15.86C77.0582 16.06 76.7448 16.2667 76.4248 16.48C76.1048 16.6933 75.8315 16.8733 75.6048 17.02V21.6C75.6048 24.72 74.4648 26.28 72.1848 26.28C71.1315 26.28 70.3048 25.9667 69.7048 25.34C69.1182 24.7133 68.8248 23.8533 68.8248 22.76C68.8248 20.32 70.4915 18.0333 73.8248 15.9V14.96C73.0648 15.84 72.0515 16.28 70.7848 16.28C69.0915 16.28 67.9248 15.5667 67.2848 14.14C67.0715 14.5267 66.8382 14.8467 66.5848 15.1C66.2248 15.46 65.8048 15.7467 65.3248 15.96C64.8582 16.1733 64.3515 16.28 63.8048 16.28C63.6182 16.28 63.4782 16.1867 63.3848 16C63.2782 15.8267 63.2248 15.6333 63.2248 15.42C63.2248 15.1933 63.2848 14.9933 63.4048 14.82C63.5115 14.6467 63.6915 14.56 63.9448 14.56ZM70.6248 22.72C70.6248 23.2933 70.7582 23.74 71.0248 24.06C71.2915 24.3933 71.6582 24.56 72.1248 24.56C73.2582 24.56 73.8248 23.5733 73.8248 21.6V18.02C71.6915 19.5267 70.6248 21.0933 70.6248 22.72ZM80.9641 16.28C80.5907 16.28 80.2707 16.1467 80.0041 15.88C79.7374 15.6 79.6041 15.2733 79.6041 14.9C79.6041 14.5267 79.7374 14.2067 80.0041 13.94C80.2707 13.6733 80.5907 13.54 80.9641 13.54C81.3374 13.54 81.6574 13.6733 81.9241 13.94C82.2041 14.2067 82.3441 14.5267 82.3441 14.9C82.3441 15.2733 82.2041 15.6 81.9241 15.88C81.6574 16.1467 81.3374 16.28 80.9641 16.28Z" fill="black"/>
</svg>
